<mxfile host="app.diagrams.net" modified="2021-02-19T11:16:22.148Z" agent="5.0 (Macintosh; Intel Mac OS X 10_15_3) AppleWebKit/537.36 (KHTML, like Gecko) Chrome/88.0.4324.150 Safari/537.36" etag="3nl9wh83T_urhSWrHzLt" version="14.2.9" type="github">
  <diagram id="bNTJRoVJssCz6DVf2vbG" name="Page-1">
    <mxGraphModel dx="946" dy="570" grid="0" gridSize="10" guides="1" tooltips="1" connect="1" arrows="1" fold="1" page="1" pageScale="1" pageWidth="827" pageHeight="1169" math="0" shadow="0">
      <root>
        <mxCell id="0" />
        <mxCell id="1" parent="0" />
        <mxCell id="jn0VWvCSKK-fts7rcIEv-6" style="edgeStyle=orthogonalEdgeStyle;rounded=0;orthogonalLoop=1;jettySize=auto;html=1;exitX=0.5;exitY=1;exitDx=0;exitDy=0;entryX=0.5;entryY=0;entryDx=0;entryDy=0;entryPerimeter=0;" parent="1" source="jn0VWvCSKK-fts7rcIEv-2" target="jn0VWvCSKK-fts7rcIEv-3" edge="1">
          <mxGeometry relative="1" as="geometry" />
        </mxCell>
        <mxCell id="jn0VWvCSKK-fts7rcIEv-2" value="&lt;div style=&quot;text-align: center&quot;&gt;&lt;/div&gt;&lt;span style=&quot;font-family: &amp;#34;source code pro&amp;#34; , &amp;#34;dejavu sans mono&amp;#34; , &amp;#34;ubuntu mono&amp;#34; , &amp;#34;anonymous pro&amp;#34; , &amp;#34;droid sans mono&amp;#34; , &amp;#34;menlo&amp;#34; , &amp;#34;monaco&amp;#34; , &amp;#34;consolas&amp;#34; , &amp;#34;inconsolata&amp;#34; , &amp;#34;courier&amp;#34; , monospace , &amp;#34;pingfang sc&amp;#34; , &amp;#34;microsoft yahei&amp;#34; , sans-serif ; background-color: rgb(249 , 242 , 244)&quot;&gt;&lt;font style=&quot;font-size: 16px&quot;&gt;查找手机支持的预览尺寸&lt;/font&gt;&lt;br&gt;&lt;/span&gt;" style="rounded=1;whiteSpace=wrap;html=1;fontSize=12;glass=0;strokeWidth=1;shadow=0;" parent="1" vertex="1">
          <mxGeometry x="120" y="100" width="200" height="40" as="geometry" />
        </mxCell>
        <mxCell id="jn0VWvCSKK-fts7rcIEv-10" style="edgeStyle=orthogonalEdgeStyle;rounded=0;orthogonalLoop=1;jettySize=auto;html=1;exitX=0.5;exitY=1;exitDx=0;exitDy=0;exitPerimeter=0;" parent="1" source="jn0VWvCSKK-fts7rcIEv-3" edge="1">
          <mxGeometry relative="1" as="geometry">
            <mxPoint x="216" y="290" as="targetPoint" />
          </mxGeometry>
        </mxCell>
        <mxCell id="jn0VWvCSKK-fts7rcIEv-11" value="&lt;font style=&quot;font-size: 14px&quot;&gt;否&lt;/font&gt;" style="edgeLabel;html=1;align=center;verticalAlign=middle;resizable=0;points=[];" parent="jn0VWvCSKK-fts7rcIEv-10" vertex="1" connectable="0">
          <mxGeometry y="-2" relative="1" as="geometry">
            <mxPoint as="offset" />
          </mxGeometry>
        </mxCell>
        <mxCell id="jn0VWvCSKK-fts7rcIEv-13" value="&lt;font style=&quot;font-size: 14px&quot;&gt;是&lt;/font&gt;" style="edgeStyle=orthogonalEdgeStyle;rounded=0;orthogonalLoop=1;jettySize=auto;html=1;exitX=1;exitY=0.5;exitDx=0;exitDy=0;exitPerimeter=0;fontSize=13;" parent="1" source="jn0VWvCSKK-fts7rcIEv-3" edge="1">
          <mxGeometry relative="1" as="geometry">
            <mxPoint x="310" y="215" as="targetPoint" />
          </mxGeometry>
        </mxCell>
        <mxCell id="jn0VWvCSKK-fts7rcIEv-3" value="是否为空" style="strokeWidth=2;html=1;shape=mxgraph.flowchart.decision;whiteSpace=wrap;fontSize=16;" parent="1" vertex="1">
          <mxGeometry x="166" y="170" width="100" height="90" as="geometry" />
        </mxCell>
        <mxCell id="jn0VWvCSKK-fts7rcIEv-15" style="edgeStyle=orthogonalEdgeStyle;rounded=0;orthogonalLoop=1;jettySize=auto;html=1;exitX=0.5;exitY=1;exitDx=0;exitDy=0;" parent="1" edge="1">
          <mxGeometry relative="1" as="geometry">
            <mxPoint x="220" y="360" as="targetPoint" />
            <mxPoint x="220" y="325" as="sourcePoint" />
          </mxGeometry>
        </mxCell>
        <mxCell id="jn0VWvCSKK-fts7rcIEv-12" value="&lt;div style=&quot;text-align: center; font-size: 16px;&quot;&gt;&lt;/div&gt;&lt;span style=&quot;color: rgb(199, 37, 78); font-family: &amp;quot;source code pro&amp;quot;, &amp;quot;dejavu sans mono&amp;quot;, &amp;quot;ubuntu mono&amp;quot;, &amp;quot;anonymous pro&amp;quot;, &amp;quot;droid sans mono&amp;quot;, menlo, monaco, consolas, inconsolata, courier, monospace, &amp;quot;pingfang sc&amp;quot;, &amp;quot;microsoft yahei&amp;quot;, sans-serif; font-size: 16px; background-color: rgb(249, 242, 244);&quot;&gt;返回默认尺寸&lt;br style=&quot;font-size: 16px;&quot;&gt;&lt;/span&gt;" style="rounded=1;whiteSpace=wrap;html=1;fontSize=16;glass=0;strokeWidth=1;shadow=0;" parent="1" vertex="1">
          <mxGeometry x="314" y="200" width="116" height="30" as="geometry" />
        </mxCell>
        <mxCell id="jn0VWvCSKK-fts7rcIEv-22" style="edgeStyle=orthogonalEdgeStyle;rounded=0;orthogonalLoop=1;jettySize=auto;html=1;exitX=0.5;exitY=1;exitDx=0;exitDy=0;" parent="1" source="jn0VWvCSKK-fts7rcIEv-14" edge="1">
          <mxGeometry relative="1" as="geometry">
            <mxPoint x="220" y="410" as="targetPoint" />
          </mxGeometry>
        </mxCell>
        <mxCell id="jn0VWvCSKK-fts7rcIEv-14" value="&lt;div style=&quot;text-align: center&quot;&gt;&lt;font face=&quot;source code pro, dejavu sans mono, ubuntu mono, anonymous pro, droid sans mono, menlo, monaco, consolas, inconsolata, courier, monospace, pingfang sc, microsoft yahei, sans-serif&quot;&gt;&lt;span style=&quot;font-size: 14px ; background-color: rgb(249 , 242 , 244)&quot;&gt;&lt;br&gt;&lt;/span&gt;&lt;/font&gt;&lt;/div&gt;&lt;span style=&quot;text-align: justify&quot;&gt;&lt;div style=&quot;text-align: center&quot;&gt;&lt;span style=&quot;font-family: lato, &amp;quot;pingfang sc&amp;quot;, &amp;quot;microsoft yahei&amp;quot;, sans-serif; text-align: justify; background-color: rgb(255, 255, 255);&quot;&gt;&lt;font style=&quot;font-size: 16px&quot;&gt;移除&amp;lt;最小像素要求的尺寸&lt;/font&gt;&lt;/span&gt;&lt;br&gt;&lt;/div&gt;&lt;/span&gt;&lt;span style=&quot;font-family: monospace; font-size: 0px;&quot;&gt;%3CmxGraphModel%3E%3Croot%3E%3CmxCell%20id%3D%220%22%2F%3E%3CmxCell%20id%3D%221%22%20parent%3D%220%22%2F%3E%3CmxCell%20id%3D%222%22%20value%3D%22%26lt%3Bspan%20style%3D%26quot%3Bcolor%3A%20rgb(199%20%2C%2037%20%2C%2078)%20%3B%20font-family%3A%20%26amp%3B%2334%3Bsource%20code%20pro%26amp%3B%2334%3B%20%2C%20%26amp%3B%2334%3Bdejavu%20sans%20mono%26amp%3B%2334%3B%20%2C%20%26amp%3B%2334%3Bubuntu%20mono%26amp%3B%2334%3B%20%2C%20%26amp%3B%2334%3Banonymous%20pro%26amp%3B%2334%3B%20%2C%20%26amp%3B%2334%3Bdroid%20sans%20mono%26amp%3B%2334%3B%20%2C%20%26amp%3B%2334%3Bmenlo%26amp%3B%2334%3B%20%2C%20%26amp%3B%2334%3Bmonaco%26amp%3B%2334%3B%20%2C%20%26amp%3B%2334%3Bconsolas%26amp%3B%2334%3B%20%2C%20%26amp%3B%2334%3Binconsolata%26amp%3B%2334%3B%20%2C%20%26amp%3B%2334%3Bcourier%26amp%3B%2334%3B%20%2C%20monospace%20%2C%20%26amp%3B%2334%3Bpingfang%20sc%26amp%3B%2334%3B%20%2C%20%26amp%3B%2334%3Bmicrosoft%20yahei%26amp%3B%2334%3B%20%2C%20sans-serif%20%3B%20font-size%3A%2014px%20%3B%20background-color%3A%20rgb(249%20%2C%20242%20%2C%20244)%26quot%3B%26gt%3BinitCamera%26lt%3B%2Fspan%26gt%3B%22%20style%3D%22rounded%3D1%3BwhiteSpace%3Dwrap%3Bhtml%3D1%3BfontSize%3D12%3Bglass%3D0%3BstrokeWidth%3D1%3Bshadow%3D0%3B%22%20vertex%3D%221%22%20parent%3D%221%22%3E%3CmxGeometry%20x%3D%22160%22%20y%3D%2280%22%20width%3D%22120%22%20height%3D%2240%22%20as%3D%22geometry%22%2F%3E%3C%2FmxCell%3E%3C%2Froot%3E%3C%2FmxGraphModel%3&lt;/span&gt;&lt;span style=&quot;font-family: &amp;quot;source code pro&amp;quot;, &amp;quot;dejavu sans mono&amp;quot;, &amp;quot;ubuntu mono&amp;quot;, &amp;quot;anonymous pro&amp;quot;, &amp;quot;droid sans mono&amp;quot;, menlo, monaco, consolas, inconsolata, courier, monospace, &amp;quot;pingfang sc&amp;quot;, &amp;quot;microsoft yahei&amp;quot;, sans-serif; font-size: 14px; background-color: rgb(249, 242, 244);&quot;&gt;&lt;br&gt;&lt;/span&gt;" style="rounded=1;whiteSpace=wrap;html=1;fontSize=12;glass=0;strokeWidth=1;shadow=0;" parent="1" vertex="1">
          <mxGeometry x="120" y="357" width="200" height="30" as="geometry" />
        </mxCell>
        <mxCell id="jn0VWvCSKK-fts7rcIEv-23" style="edgeStyle=orthogonalEdgeStyle;rounded=0;orthogonalLoop=1;jettySize=auto;html=1;exitX=0.5;exitY=1;exitDx=0;exitDy=0;" parent="1" source="jn0VWvCSKK-fts7rcIEv-16" edge="1">
          <mxGeometry relative="1" as="geometry">
            <mxPoint x="225" y="510" as="targetPoint" />
          </mxGeometry>
        </mxCell>
        <mxCell id="jn0VWvCSKK-fts7rcIEv-16" value="&lt;div style=&quot;text-align: center&quot;&gt;&lt;/div&gt;&lt;span style=&quot;font-family: lato, &amp;quot;pingfang sc&amp;quot;, &amp;quot;microsoft yahei&amp;quot;, sans-serif; text-align: justify; background-color: rgb(255, 255, 255);&quot;&gt;&lt;font style=&quot;font-size: 17px&quot;&gt;剔除预览宽高比与屏幕分辨率宽高比之差的绝对值大于0.15的所有尺寸&lt;/font&gt;&lt;/span&gt;&lt;span style=&quot;font-family: &amp;quot;source code pro&amp;quot;, &amp;quot;dejavu sans mono&amp;quot;, &amp;quot;ubuntu mono&amp;quot;, &amp;quot;anonymous pro&amp;quot;, &amp;quot;droid sans mono&amp;quot;, menlo, monaco, consolas, inconsolata, courier, monospace, &amp;quot;pingfang sc&amp;quot;, &amp;quot;microsoft yahei&amp;quot;, sans-serif; font-size: 14px; background-color: rgb(249, 242, 244);&quot;&gt;&lt;br&gt;&lt;/span&gt;" style="rounded=1;whiteSpace=wrap;html=1;fontSize=12;glass=0;strokeWidth=1;shadow=0;" parent="1" vertex="1">
          <mxGeometry x="120" y="410" width="210" height="80" as="geometry" />
        </mxCell>
        <mxCell id="jn0VWvCSKK-fts7rcIEv-26" value="&lt;font style=&quot;font-size: 14px&quot;&gt;否&lt;/font&gt;" style="edgeStyle=orthogonalEdgeStyle;rounded=0;orthogonalLoop=1;jettySize=auto;html=1;exitX=1;exitY=0.5;exitDx=0;exitDy=0;exitPerimeter=0;" parent="1" source="jn0VWvCSKK-fts7rcIEv-19" edge="1">
          <mxGeometry relative="1" as="geometry">
            <mxPoint x="320" y="558" as="targetPoint" />
          </mxGeometry>
        </mxCell>
        <mxCell id="jn0VWvCSKK-fts7rcIEv-29" style="edgeStyle=orthogonalEdgeStyle;rounded=0;orthogonalLoop=1;jettySize=auto;html=1;exitX=0.5;exitY=1;exitDx=0;exitDy=0;exitPerimeter=0;" parent="1" source="jn0VWvCSKK-fts7rcIEv-19" target="jn0VWvCSKK-fts7rcIEv-24" edge="1">
          <mxGeometry relative="1" as="geometry" />
        </mxCell>
        <mxCell id="jn0VWvCSKK-fts7rcIEv-32" value="&lt;font style=&quot;font-size: 13px&quot;&gt;是&lt;/font&gt;" style="edgeLabel;html=1;align=center;verticalAlign=middle;resizable=0;points=[];" parent="jn0VWvCSKK-fts7rcIEv-29" vertex="1" connectable="0">
          <mxGeometry x="0.0698" y="4" relative="1" as="geometry">
            <mxPoint x="-4" y="-4" as="offset" />
          </mxGeometry>
        </mxCell>
        <mxCell id="jn0VWvCSKK-fts7rcIEv-19" value="&lt;div style=&quot;text-align: center ; font-size: 14px&quot;&gt;&lt;font style=&quot;font-size: 14px&quot;&gt;&lt;span style=&quot;text-align: justify ; background-color: rgb(248 , 249 , 250)&quot;&gt;是否与&lt;/span&gt;&lt;span style=&quot;background-color: rgb(255 , 255 , 255) ; font-family: &amp;#34;lato&amp;#34; , &amp;#34;pingfang sc&amp;#34; , &amp;#34;microsoft yahei&amp;#34; , sans-serif ; text-align: justify&quot;&gt;屏幕&lt;/span&gt;&lt;/font&gt;&lt;/div&gt;&lt;div style=&quot;text-align: center ; font-size: 14px&quot;&gt;&lt;font style=&quot;font-size: 14px&quot;&gt;&lt;span style=&quot;background-color: rgb(255 , 255 , 255) ; font-family: &amp;#34;lato&amp;#34; , &amp;#34;pingfang sc&amp;#34; , &amp;#34;microsoft yahei&amp;#34; , sans-serif ; text-align: justify&quot;&gt;宽高匹配精确&lt;/span&gt;&lt;/font&gt;&lt;/div&gt;" style="strokeWidth=2;html=1;shape=mxgraph.flowchart.decision;whiteSpace=wrap;" parent="1" vertex="1">
          <mxGeometry x="176" y="513" width="100" height="90" as="geometry" />
        </mxCell>
        <mxCell id="jn0VWvCSKK-fts7rcIEv-24" value="&lt;div style=&quot;text-align: center&quot;&gt;&lt;/div&gt;&lt;span style=&quot;color: rgb(199 , 37 , 78) ; font-family: &amp;#34;source code pro&amp;#34; , &amp;#34;dejavu sans mono&amp;#34; , &amp;#34;ubuntu mono&amp;#34; , &amp;#34;anonymous pro&amp;#34; , &amp;#34;droid sans mono&amp;#34; , &amp;#34;menlo&amp;#34; , &amp;#34;monaco&amp;#34; , &amp;#34;consolas&amp;#34; , &amp;#34;inconsolata&amp;#34; , &amp;#34;courier&amp;#34; , monospace , &amp;#34;pingfang sc&amp;#34; , &amp;#34;microsoft yahei&amp;#34; , sans-serif ; background-color: rgb(249 , 242 , 244)&quot;&gt;&lt;font style=&quot;font-size: 17px&quot;&gt;返回匹配的尺寸&lt;/font&gt;&lt;br&gt;&lt;/span&gt;" style="rounded=1;whiteSpace=wrap;html=1;fontSize=12;glass=0;strokeWidth=1;shadow=0;" parent="1" vertex="1">
          <mxGeometry x="126" y="640" width="200" height="30" as="geometry" />
        </mxCell>
        <mxCell id="jn0VWvCSKK-fts7rcIEv-25" value="&lt;div style=&quot;text-align: center; font-size: 15px;&quot;&gt;&lt;/div&gt;&lt;span style=&quot;color: rgb(199, 37, 78); font-family: &amp;quot;source code pro&amp;quot;, &amp;quot;dejavu sans mono&amp;quot;, &amp;quot;ubuntu mono&amp;quot;, &amp;quot;anonymous pro&amp;quot;, &amp;quot;droid sans mono&amp;quot;, menlo, monaco, consolas, inconsolata, courier, monospace, &amp;quot;pingfang sc&amp;quot;, &amp;quot;microsoft yahei&amp;quot;, sans-serif; font-size: 15px; background-color: rgb(249, 242, 244);&quot;&gt;返回最大的尺寸&lt;br style=&quot;font-size: 15px;&quot;&gt;&lt;/span&gt;" style="rounded=1;whiteSpace=wrap;html=1;fontSize=15;glass=0;strokeWidth=1;shadow=0;" parent="1" vertex="1">
          <mxGeometry x="330" y="543" width="116" height="30" as="geometry" />
        </mxCell>
        <mxCell id="jn0VWvCSKK-fts7rcIEv-30" value="&amp;nbsp;" style="text;html=1;strokeColor=none;fillColor=none;align=center;verticalAlign=middle;whiteSpace=wrap;rounded=0;" parent="1" vertex="1">
          <mxGeometry x="440" y="210" width="40" height="20" as="geometry" />
        </mxCell>
        <mxCell id="jn0VWvCSKK-fts7rcIEv-31" value="&amp;nbsp;" style="text;html=1;strokeColor=none;fillColor=none;align=center;verticalAlign=middle;whiteSpace=wrap;rounded=0;" parent="1" vertex="1">
          <mxGeometry x="420" y="660" width="40" height="20" as="geometry" />
        </mxCell>
        <mxCell id="imBopEBXpJHanNiJF-PV-2" value="&lt;div style=&quot;text-align: center&quot;&gt;&lt;/div&gt;&lt;span style=&quot;font-family: &amp;#34;source code pro&amp;#34; , &amp;#34;dejavu sans mono&amp;#34; , &amp;#34;ubuntu mono&amp;#34; , &amp;#34;anonymous pro&amp;#34; , &amp;#34;droid sans mono&amp;#34; , &amp;#34;menlo&amp;#34; , &amp;#34;monaco&amp;#34; , &amp;#34;consolas&amp;#34; , &amp;#34;inconsolata&amp;#34; , &amp;#34;courier&amp;#34; , monospace , &amp;#34;pingfang sc&amp;#34; , &amp;#34;microsoft yahei&amp;#34; , sans-serif ; background-color: rgb(249 , 242 , 244)&quot;&gt;&lt;font style=&quot;font-size: 16px&quot;&gt;尺寸排序&lt;/font&gt;&lt;br&gt;&lt;/span&gt;" style="rounded=1;whiteSpace=wrap;html=1;fontSize=12;glass=0;strokeWidth=1;shadow=0;" vertex="1" parent="1">
          <mxGeometry x="116" y="290" width="200" height="30" as="geometry" />
        </mxCell>
      </root>
    </mxGraphModel>
  </diagram>
</mxfile>
